<svg viewBox="0 0 36 36" fill="none" xmlns="http://www.w3.org/2000/svg" width="36" height="36">
  <rect width="36" height="36" rx="8" fill="#e93f33"/>
  <!-- Rhino body -->
  <path d="M6 22.5c0-1 .4-1.8 1-2.3.3-.3.5-.7.5-1.2v-1.5c0-1.5.6-2.9 1.7-3.9l.8-.7c.5-.5.8-1.1.8-1.8v-.6c0-.8.5-1.5 1.2-1.8l2.5-1c.5-.2 1-.2 1.5 0l1.5.6c.8.3 1.7.5 2.5.5h2c1.7 0 3.2.7 4.3 1.8l1.2 1.2c.7.7 1 1.6 1 2.5v2.2c0 .8-.3 1.5-.8 2l-1.2 1.2v2.3c0 .8-.7 1.5-1.5 1.5h-1c-.8 0-1.5-.7-1.5-1.5V20h-1v2.5c0 .8-.7 1.5-1.5 1.5h-1c-.8 0-1.5-.7-1.5-1.5V20h-3.5l-2 2.8c-.3.4-.8.7-1.3.7H9.5c-.8 0-1.5-.3-2.2-.7-.8-.5-1.3-1.3-1.3-2.3zm5.5-7a1 1 0 100-2 1 1 0 000 2z" fill="#fff"/>
  <!-- Horn -->
  <path d="M8.5 14l-2-3.5c-.2-.3 0-.7.4-.7h2.3c.3 0 .5.2.6.4l.7 2.3" fill="#fff" opacity=".9"/>
</svg>
